<?xml version="1.0" encoding="utf-8"?>

<!-- The icon can be used freely in both personal and commercial projects with no attribution required, but always appreciated. 
You may NOT sub-license, resell, rent, redistribute or otherwise transfer the icon without express written permission from iconmonstr.com -->

<!DOCTYPE svg PUBLIC "-//W3C//DTD SVG 1.1//EN" "http://www.w3.org/Graphics/SVG/1.1/DTD/svg11.dtd">
<svg version="1.1" xmlns="http://www.w3.org/2000/svg" xmlns:xlink="http://www.w3.org/1999/xlink" x="0px" y="0px"
	 width="512px" height="512px" viewBox="0 0 512 512" enable-background="new 0 0 512 512" xml:space="preserve">
<path id="microphone-3-icon" d="M188,240.084v-122c0-37.555,30.445-68,68-68c37.556,0,68,30.445,68,68v122c0,37.555-30.444,68-68,68
	C218.445,308.084,188,277.639,188,240.084z M354,205.084v35c0,54.037-43.963,98-98,98s-98-43.963-98-98v-35h-40v35
	c0,68.432,50.071,125.379,115.5,136.156v45.676H176v40h160v-40h-57.5V376.24C343.929,365.463,394,308.516,394,240.084v-35H354z"/>
</svg>
